<?xml version="1.0" standalone="no"?><!DOCTYPE svg PUBLIC "-//W3C//DTD SVG 1.1//EN" "http://www.w3.org/Graphics/SVG/1.1/DTD/svg11.dtd"><svg xmlns:xlink="http://www.w3.org/1999/xlink" version="1.1" style="font-family:open sans;font-size:12px;" xmlns="http://www.w3.org/2000/svg" width="1040" height="410"><desc>Created with Highcharts 4.1.5</desc><defs><clipPath id="highcharts-67"><rect x="0" y="0" width="760" height="196"></rect></clipPath></defs><rect x="0" y="0" width="1040" height="410" strokeWidth="0" fill="#FFFFFF" class=" highcharts-background"></rect><g class="highcharts-grid" ></g><g class="highcharts-grid" ></g><g class="highcharts-grid" ></g><g class="highcharts-grid" ><path fill="none" d="M 116 331.5 L 876 331.5" stroke="#D8D8D8" stroke-width="1"  opacity="1"></path><path fill="none" d="M 116 266.5 L 876 266.5" stroke="#D8D8D8" stroke-width="1"  opacity="1"></path><path fill="none" d="M 116 200.5 L 876 200.5" stroke="#D8D8D8" stroke-width="1"  opacity="1"></path><path fill="none" d="M 116 134.5 L 876 134.5" stroke="#D8D8D8" stroke-width="1"  opacity="1"></path></g><g class="highcharts-axis" ><path fill="none" d="M 173.5 331 L 173.5 341" stroke="#C0D0E0" stroke-width="1" opacity="1"></path><path fill="none" d="M 232.5 331 L 232.5 341" stroke="#C0D0E0" stroke-width="1" opacity="1"></path><path fill="none" d="M 290.5 331 L 290.5 341" stroke="#C0D0E0" stroke-width="1" opacity="1"></path><path fill="none" d="M 349.5 331 L 349.5 341" stroke="#C0D0E0" stroke-width="1" opacity="1"></path><path fill="none" d="M 407.5 331 L 407.5 341" stroke="#C0D0E0" stroke-width="1" opacity="1"></path><path fill="none" d="M 466.5 331 L 466.5 341" stroke="#C0D0E0" stroke-width="1" opacity="1"></path><path fill="none" d="M 524.5 331 L 524.5 341" stroke="#C0D0E0" stroke-width="1" opacity="1"></path><path fill="none" d="M 583.5 331 L 583.5 341" stroke="#C0D0E0" stroke-width="1" opacity="1"></path><path fill="none" d="M 641.5 331 L 641.5 341" stroke="#C0D0E0" stroke-width="1" opacity="1"></path><path fill="none" d="M 700.5 331 L 700.5 341" stroke="#C0D0E0" stroke-width="1" opacity="1"></path><path fill="none" d="M 758.5 331 L 758.5 341" stroke="#C0D0E0" stroke-width="1" opacity="1"></path><path fill="none" d="M 817.5 331 L 817.5 341" stroke="#C0D0E0" stroke-width="1" opacity="1"></path><path fill="none" d="M 876.5 331 L 876.5 341" stroke="#C0D0E0" stroke-width="1" opacity="1"></path><path fill="none" d="M 115.5 331 L 115.5 341" stroke="#C0D0E0" stroke-width="1" opacity="1"></path><path fill="none" d="M 116 331.5 L 876 331.5" stroke="#C0D0E0" stroke-width="1"  visibility="visible"></path></g><g class="highcharts-axis" ><path fill="none" d="M 173.5 135 L 173.5 125" stroke="#C0D0E0" stroke-width="1" opacity="1"></path><path fill="none" d="M 232.5 135 L 232.5 125" stroke="#C0D0E0" stroke-width="1" opacity="1"></path><path fill="none" d="M 290.5 135 L 290.5 125" stroke="#C0D0E0" stroke-width="1" opacity="1"></path><path fill="none" d="M 349.5 135 L 349.5 125" stroke="#C0D0E0" stroke-width="1" opacity="1"></path><path fill="none" d="M 407.5 135 L 407.5 125" stroke="#C0D0E0" stroke-width="1" opacity="1"></path><path fill="none" d="M 466.5 135 L 466.5 125" stroke="#C0D0E0" stroke-width="1" opacity="1"></path><path fill="none" d="M 524.5 135 L 524.5 125" stroke="#C0D0E0" stroke-width="1" opacity="1"></path><path fill="none" d="M 583.5 135 L 583.5 125" stroke="#C0D0E0" stroke-width="1" opacity="1"></path><path fill="none" d="M 641.5 135 L 641.5 125" stroke="#C0D0E0" stroke-width="1" opacity="1"></path><path fill="none" d="M 700.5 135 L 700.5 125" stroke="#C0D0E0" stroke-width="1" opacity="1"></path><path fill="none" d="M 758.5 135 L 758.5 125" stroke="#C0D0E0" stroke-width="1" opacity="1"></path><path fill="none" d="M 817.5 135 L 817.5 125" stroke="#C0D0E0" stroke-width="1" opacity="1"></path><path fill="none" d="M 876.5 135 L 876.5 125" stroke="#C0D0E0" stroke-width="1" opacity="1"></path><path fill="none" d="M 115.5 135 L 115.5 125" stroke="#C0D0E0" stroke-width="1" opacity="1"></path><path fill="none" d="M 116 134.5 L 876 134.5" stroke="#C0D0E0" stroke-width="1"  visibility="visible"></path></g><g class="highcharts-axis" ><text x="1012.7333297729492"  text-anchor="middle" transform="translate(0,0) rotate(90 1012.7333297729492 233)" class=" highcharts-yaxis-title" style="color:#000000;fill:#000000;" visibility="visible" y="233"><tspan>Sociology doctorates awarded (US)</tspan></text></g><g class="highcharts-axis" ><text x="26.849998474121094"  text-anchor="middle" transform="translate(0,0) rotate(270 26.849998474121094 233)" class=" highcharts-yaxis-title" style="color:#ba0f27;fill:#ba0f27;" visibility="visible" y="233"><tspan>Worldwide non-commercial space launches</tspan></text></g><g class="highcharts-series-group" ><g class="highcharts-series" visibility="visible"  transform="translate(116,135) scale(1 1)" clip-path="url(#highcharts-67)"><path fill="none" d="M 29.23076923076923 97.02 C 29.23076923076923 97.02 64.3076923076923 112.896 87.6923076923077 118.58 C 111.0769230769231 124.26400000000001 122.76923076923076 125.44 146.15384615384616 125.44 C 169.53846153846152 125.44 181.23076923076923 81.34 204.6153846153846 81.34 C 228 81.34 239.6923076923077 117.6 263.0769230769231 131.32 C 286.46153846153845 145.03999999999996 298.1538461538462 149.94 321.53846153846155 149.94 C 344.92307692307696 149.94 356.61538461538464 100.94 380 100.94 C 403.38461538461536 100.94 415.07692307692304 105.64399999999996 438.46153846153845 117.6 C 461.8461538461538 129.55599999999998 473.53846153846155 160.72 496.9230769230769 160.72 C 520.3076923076924 160.72 532 118.58 555.3846153846155 118.58 C 578.7692307692308 118.58 590.4615384615386 121.52 613.8461538461539 121.52 C 637.2307692307693 121.52 648.9230769230769 114.268 672.3076923076924 97.02 C 695.6923076923078 79.77199999999999 730.7692307692308 35.28 730.7692307692308 35.28" stroke="#000000" stroke-width="2"  stroke-linejoin="round" stroke-linecap="round"></path></g><g class="highcharts-markers" visibility="visible"  transform="translate(116,135) scale(1 1)" clip-path="none"><path fill="#000000" d="M 730 31.28 C 735.328 31.28 735.328 39.28 730 39.28 C 724.672 39.28 724.672 31.28 730 31.28 Z"></path><path fill="#000000" d="M 672 93.02 C 677.328 93.02 677.328 101.02 672 101.02 C 666.672 101.02 666.672 93.02 672 93.02 Z"></path><path fill="#000000" d="M 613 117.52 C 618.328 117.52 618.328 125.52 613 125.52 C 607.672 125.52 607.672 117.52 613 117.52 Z"></path><path fill="#000000" d="M 555 114.58 C 560.328 114.58 560.328 122.58 555 122.58 C 549.672 122.58 549.672 114.58 555 114.58 Z"></path><path fill="#000000" d="M 496 156.72 C 501.328 156.72 501.328 164.72 496 164.72 C 490.672 164.72 490.672 156.72 496 156.72 Z"></path><path fill="#000000" d="M 438 113.6 C 443.328 113.6 443.328 121.6 438 121.6 C 432.672 121.6 432.672 113.6 438 113.6 Z"></path><path fill="#000000" d="M 380 96.94 C 385.328 96.94 385.328 104.94 380 104.94 C 374.672 104.94 374.672 96.94 380 96.94 Z"></path><path fill="#000000" d="M 321 145.94 C 326.328 145.94 326.328 153.94 321 153.94 C 315.672 153.94 315.672 145.94 321 145.94 Z"></path><path fill="#000000" d="M 263 127.32 C 268.328 127.32 268.328 135.32 263 135.32 C 257.672 135.32 257.672 127.32 263 127.32 Z"></path><path fill="#000000" d="M 204 77.34 C 209.328 77.34 209.328 85.34 204 85.34 C 198.672 85.34 198.672 77.34 204 77.34 Z"></path><path fill="#000000" d="M 146 121.44 C 151.328 121.44 151.328 129.44 146 129.44 C 140.672 129.44 140.672 121.44 146 121.44 Z"></path><path fill="#000000" d="M 87 114.58 C 92.328 114.58 92.328 122.58 87 122.58 C 81.672 122.58 81.672 114.58 87 114.58 Z"></path><path fill="#000000" d="M 29 93.02 C 34.328 93.02 34.328 101.02 29 101.02 C 23.672 101.02 23.672 93.02 29 93.02 Z"></path></g><g class="highcharts-series" visibility="visible"  transform="translate(116,135) scale(1 1)" clip-path="url(#highcharts-67)"><path fill="none" d="M 29.23076923076923 39.19999999999999 C 29.23076923076923 39.19999999999999 64.3076923076923 75.78666666666668 87.6923076923077 91.46666666666667 C 111.0769230769231 107.14666666666668 122.76923076923076 117.6 146.15384615384616 117.6 C 169.53846153846152 117.6 181.23076923076923 65.33333333333334 204.6153846153846 65.33333333333334 C 228 65.33333333333334 239.6923076923077 99.30666666666666 263.0769230769231 111.06666666666666 C 286.46153846153845 122.82666666666665 298.1538461538462 124.13333333333334 321.53846153846155 124.13333333333334 C 344.92307692307696 124.13333333333334 356.61538461538464 91.46666666666667 380 91.46666666666667 C 403.38461538461536 91.46666666666667 415.07692307692304 125.43999999999997 438.46153846153845 137.2 C 461.8461538461538 148.95999999999995 473.53846153846155 150.26666666666665 496.9230769230769 150.26666666666665 C 520.3076923076924 150.26666666666665 532 98 555.3846153846155 98 C 578.7692307692308 98 590.4615384615386 98 613.8461538461539 98 C 637.2307692307693 98 648.9230769230769 124.13333333333334 672.3076923076924 124.13333333333334 C 695.6923076923078 124.13333333333334 730.7692307692308 39.19999999999999 730.7692307692308 39.19999999999999" stroke="#ba0f27" stroke-width="2"  stroke-linejoin="round" stroke-linecap="round"></path></g><g class="highcharts-markers" visibility="visible"  transform="translate(116,135) scale(1 1)" clip-path="none"><path fill="#ba0f27" d="M 730 35.19999999999999 L 734 39.19999999999999 730 43.19999999999999 726 39.19999999999999 Z"></path><path fill="#ba0f27" d="M 672 120.13333333333334 L 676 124.13333333333334 672 128.13333333333333 668 124.13333333333334 Z"></path><path fill="#ba0f27" d="M 613 94 L 617 98 613 102 609 98 Z"></path><path fill="#ba0f27" d="M 555 94 L 559 98 555 102 551 98 Z"></path><path fill="#ba0f27" d="M 496 146.26666666666665 L 500 150.26666666666665 496 154.26666666666665 492 150.26666666666665 Z"></path><path fill="#ba0f27" d="M 438 133.2 L 442 137.2 438 141.2 434 137.2 Z"></path><path fill="#ba0f27" d="M 380 87.46666666666667 L 384 91.46666666666667 380 95.46666666666667 376 91.46666666666667 Z"></path><path fill="#ba0f27" d="M 321 120.13333333333334 L 325 124.13333333333334 321 128.13333333333333 317 124.13333333333334 Z"></path><path fill="#ba0f27" d="M 263 107.06666666666666 L 267 111.06666666666666 263 115.06666666666666 259 111.06666666666666 Z"></path><path fill="#ba0f27" d="M 204 61.33333333333334 L 208 65.33333333333334 204 69.33333333333334 200 65.33333333333334 Z"></path><path fill="#ba0f27" d="M 146 113.6 L 150 117.6 146 121.6 142 117.6 Z"></path><path fill="#ba0f27" d="M 87 87.46666666666667 L 91 91.46666666666667 87 95.46666666666667 83 91.46666666666667 Z"></path><path fill="#ba0f27" d="M 29 35.19999999999999 L 33 39.19999999999999 29 43.19999999999999 25 39.19999999999999 Z"></path></g></g><text x="520" text-anchor="middle" class="highcharts-title"  style="color:#777;font-size:18px;fill:#777;width:976px;" y="24"><tspan style="fill:#ba0f27;font-size:24px;font-weight:bold;font-family: 'lora'">Worldwide non-commercial space launches</tspan><tspan style="font-family: 'lora'" x="520" dy="21"> correlates with </tspan><tspan style="fill:#000000;font-size:24px;font-weight:bold;font-family: 'lora'" x="520" dy="29">Sociology doctorates awarded (US)</tspan></text><g class="highcharts-legend"  transform="translate(248,367)"><g ><g><g class="highcharts-legend-item"  transform="translate(8,3)"><path fill="none" d="M 0 11 L 16 11" stroke="#000000" stroke-width="2"></path><path fill="#000000" d="M 8 7 C 13.328 7 13.328 15 8 15 C 2.6719999999999997 15 2.6719999999999997 7 8 7 Z"></path><text x="21" style="color:#333333;font-size:12px;font-weight:bold;cursor:pointer;fill:#333333;" text-anchor="start"  y="15"><tspan>Sociology doctorates awarded (US)</tspan></text></g><g class="highcharts-legend-item"  transform="translate(255.51666259765625,3)"><path fill="none" d="M 0 11 L 16 11" stroke="#ba0f27" stroke-width="2"></path><path fill="#ba0f27" d="M 8 7 L 12 11 8 15 4 11 Z"></path><text x="21" y="15" style="color:#333333;font-size:12px;font-weight:bold;cursor:pointer;fill:#333333;" text-anchor="start" ><tspan>Worldwide non-commercial space launches</tspan></text></g></g></g></g><g class="highcharts-axis-labels highcharts-xaxis-labels" ><text x="145.23076923076923" style="color:#000000;cursor:default;font-size:11px;fill:#000000;" text-anchor="middle" transform="translate(0,0)" y="350" opacity="1">1997</text><text x="203.69230769230768" style="color:#000000;cursor:default;font-size:11px;fill:#000000;" text-anchor="middle" transform="translate(0,0)" y="350" opacity="1">1998</text><text x="262.15384615384613" style="color:#000000;cursor:default;font-size:11px;fill:#000000;" text-anchor="middle" transform="translate(0,0)" y="350" opacity="1">1999</text><text x="320.6153846153846" style="color:#000000;cursor:default;font-size:11px;fill:#000000;" text-anchor="middle" transform="translate(0,0)" y="350" opacity="1">2000</text><text x="379.0769230769231" style="color:#000000;cursor:default;font-size:11px;fill:#000000;" text-anchor="middle" transform="translate(0,0)" y="350" opacity="1">2001</text><text x="437.53846153846155" style="color:#000000;cursor:default;font-size:11px;fill:#000000;" text-anchor="middle" transform="translate(0,0)" y="350" opacity="1">2002</text><text x="496.00000000000006" style="color:#000000;cursor:default;font-size:11px;fill:#000000;" text-anchor="middle" transform="translate(0,0)" y="350" opacity="1">2003</text><text x="554.4615384615383" style="color:#000000;cursor:default;font-size:11px;fill:#000000;" text-anchor="middle" transform="translate(0,0)" y="350" opacity="1">2004</text><text x="612.9230769230769" style="color:#000000;cursor:default;font-size:11px;fill:#000000;" text-anchor="middle" transform="translate(0,0)" y="350" opacity="1">2005</text><text x="671.3846153846154" style="color:#000000;cursor:default;font-size:11px;fill:#000000;" text-anchor="middle" transform="translate(0,0)" y="350" opacity="1">2006</text><text x="729.8461538461538" style="color:#000000;cursor:default;font-size:11px;fill:#000000;" text-anchor="middle" transform="translate(0,0)" y="350" opacity="1">2007</text><text x="788.3076923076923" style="color:#000000;cursor:default;font-size:11px;fill:#000000;" text-anchor="middle" transform="translate(0,0)" y="350" opacity="1">2008</text><text x="846.7692307692307" style="color:#000000;cursor:default;font-size:11px;fill:#000000;" text-anchor="middle" transform="translate(0,0)" y="350" opacity="1">2009</text></g><g class="highcharts-axis-labels highcharts-xaxis-labels" ><text x="145.23076923076923" style="color:#ba0f27;cursor:default;font-size:11px;fill:#ba0f27;" text-anchor="middle" transform="translate(0,0)" y="120" opacity="1">1997</text><text x="203.69230769230768" style="color:#ba0f27;cursor:default;font-size:11px;fill:#ba0f27;" text-anchor="middle" transform="translate(0,0)" y="120" opacity="1">1998</text><text x="262.15384615384613" style="color:#ba0f27;cursor:default;font-size:11px;fill:#ba0f27;" text-anchor="middle" transform="translate(0,0)" y="120" opacity="1">1999</text><text x="320.6153846153846" style="color:#ba0f27;cursor:default;font-size:11px;fill:#ba0f27;" text-anchor="middle" transform="translate(0,0)" y="120" opacity="1">2000</text><text x="379.0769230769231" style="color:#ba0f27;cursor:default;font-size:11px;fill:#ba0f27;" text-anchor="middle" transform="translate(0,0)" y="120" opacity="1">2001</text><text x="437.53846153846155" style="color:#ba0f27;cursor:default;font-size:11px;fill:#ba0f27;" text-anchor="middle" transform="translate(0,0)" y="120" opacity="1">2002</text><text x="496.00000000000006" style="color:#ba0f27;cursor:default;font-size:11px;fill:#ba0f27;" text-anchor="middle" transform="translate(0,0)" y="120" opacity="1">2003</text><text x="554.4615384615383" style="color:#ba0f27;cursor:default;font-size:11px;fill:#ba0f27;" text-anchor="middle" transform="translate(0,0)" y="120" opacity="1">2004</text><text x="612.9230769230769" style="color:#ba0f27;cursor:default;font-size:11px;fill:#ba0f27;" text-anchor="middle" transform="translate(0,0)" y="120" opacity="1">2005</text><text x="671.3846153846154" style="color:#ba0f27;cursor:default;font-size:11px;fill:#ba0f27;" text-anchor="middle" transform="translate(0,0)" y="120" opacity="1">2006</text><text x="729.8461538461538" style="color:#ba0f27;cursor:default;font-size:11px;fill:#ba0f27;" text-anchor="middle" transform="translate(0,0)" y="120" opacity="1">2007</text><text x="788.3076923076923" style="color:#ba0f27;cursor:default;font-size:11px;fill:#ba0f27;" text-anchor="middle" transform="translate(0,0)" y="120" opacity="1">2008</text><text x="846.7692307692307" style="color:#ba0f27;cursor:default;font-size:11px;fill:#ba0f27;" text-anchor="middle" transform="translate(0,0)" y="120" opacity="1">2009</text></g><g class="highcharts-axis-labels highcharts-yaxis-labels" ><text x="891" style="color:#000000;cursor:default;font-size:11px;fill:#000000;width:333px;text-overflow:clip;" text-anchor="start" transform="translate(0,0)" y="334" opacity="1"><tspan>500 Degrees awarded</tspan></text><text x="891" style="color:#000000;cursor:default;font-size:11px;fill:#000000;width:333px;text-overflow:clip;" text-anchor="start" transform="translate(0,0)" y="285" opacity="1"><tspan>550 Degrees awarded</tspan></text><text x="891" style="color:#000000;cursor:default;font-size:11px;fill:#000000;width:333px;text-overflow:clip;" text-anchor="start" transform="translate(0,0)" y="236" opacity="1"><tspan>600 Degrees awarded</tspan></text><text x="891" style="color:#000000;cursor:default;font-size:11px;fill:#000000;width:333px;text-overflow:clip;" text-anchor="start" transform="translate(0,0)" y="187" opacity="1"><tspan>650 Degrees awarded</tspan></text><text x="891" style="color:#000000;cursor:default;font-size:11px;fill:#000000;width:333px;text-overflow:clip;" text-anchor="start" transform="translate(0,0)" y="138" opacity="1"><tspan>700 Degrees awarded</tspan></text></g><g class="highcharts-axis-labels highcharts-yaxis-labels" ><text x="101" style="color:#ba0f27;cursor:default;font-size:11px;fill:#ba0f27;width:333px;text-overflow:clip;" text-anchor="end" transform="translate(0,0)" y="269" opacity="1"><tspan>40 Launches</tspan></text><text x="101" style="color:#ba0f27;cursor:default;font-size:11px;fill:#ba0f27;width:333px;text-overflow:clip;" text-anchor="end" transform="translate(0,0)" y="203" opacity="1"><tspan>50 Launches</tspan></text><text x="101" style="color:#ba0f27;cursor:default;font-size:11px;fill:#ba0f27;width:333px;text-overflow:clip;" text-anchor="end" transform="translate(0,0)" y="334" opacity="1"><tspan>30 Launches</tspan></text><text x="101" style="color:#ba0f27;cursor:default;font-size:11px;fill:#ba0f27;width:333px;text-overflow:clip;" text-anchor="end" transform="translate(0,0)" y="138" opacity="1"><tspan>60 Launches</tspan></text></g><g class="highcharts-tooltip"  style="cursor:default;padding:0;white-space:nowrap;" transform="translate(0,-9999)"><path fill="none" d="M 3 0 L 13 0 C 16 0 16 0 16 3 L 16 13 C 16 16 16 16 13 16 L 3 16 C 0 16 0 16 0 13 L 0 3 C 0 0 0 0 3 0"  stroke="black" stroke-opacity="0.049999999999999996" stroke-width="5" transform="translate(1, 1)"></path><path fill="none" d="M 3 0 L 13 0 C 16 0 16 0 16 3 L 16 13 C 16 16 16 16 13 16 L 3 16 C 0 16 0 16 0 13 L 0 3 C 0 0 0 0 3 0"  stroke="black" stroke-opacity="0.09999999999999999" stroke-width="3" transform="translate(1, 1)"></path><path fill="none" d="M 3 0 L 13 0 C 16 0 16 0 16 3 L 16 13 C 16 16 16 16 13 16 L 3 16 C 0 16 0 16 0 13 L 0 3 C 0 0 0 0 3 0"  stroke="black" stroke-opacity="0.15" stroke-width="1" transform="translate(1, 1)"></path><path fill="rgb(249, 249, 249)" fill-opacity=" .85" d="M 3 0 L 13 0 C 16 0 16 0 16 3 L 16 13 C 16 16 16 16 13 16 L 3 16 C 0 16 0 16 0 13 L 0 3 C 0 0 0 0 3 0"></path><text x="8"  style="font-size:12px;color:#333333;fill:#333333;" transform="translate(0,20)"></text></g><text x="1030" text-anchor="end"  style="cursor:pointer;color:#909090;font-size:9px;fill:#909090;" y="405">tylervigen.com</text></svg>